<svg width="23" height="22" viewBox="0 0 23 22" fill="none" xmlns="http://www.w3.org/2000/svg">
<path d="M18.8892 3.78029C17.9229 2.81396 16.3562 2.81396 15.3898 3.78029L13.6397 5.53042L13.0564 4.94711C12.7343 4.625 12.212 4.625 11.8899 4.94711C11.5678 5.26922 11.5678 5.79147 11.8899 6.11358L16.5558 10.7794C16.8779 11.1016 17.4001 11.1016 17.7223 10.7794C18.0444 10.4573 18.0444 9.93509 17.7223 9.61298L17.1391 9.02982L18.8892 7.27969C19.8556 6.31336 19.8556 4.74662 18.8892 3.78029Z" fill="white"/>
<path fill-rule="evenodd" clip-rule="evenodd" d="M11.9153 7.25482L5.49974 13.6704C4.73791 14.4322 4.57669 15.5672 5.01607 16.487L3.7251 17.778L4.89157 18.9444L6.18254 17.6535C7.10232 18.0928 8.23732 17.9316 8.99916 17.1698L15.4147 10.7542L11.9153 7.25482ZM13.9546 10.7542L11.9153 8.71499L6.22983 14.4005C5.90772 14.7226 5.60017 15.81 6.22983 16.4397C6.85949 17.0694 7.94696 16.7618 8.26907 16.4397L13.9546 10.7542Z" fill="white"/>
</svg>
