<svg width="22" height="22" viewBox="0 0 22 22" fill="none" xmlns="http://www.w3.org/2000/svg">
<path d="M8.29412 18.2902C10.0588 20.1002 12.9244 20.3272 14.9118 19.6477C16.8991 18.9683 18 17.3852 18 15.1227C18 13.4654 18 9.13771 18 6.9407C18 6.20974 17.4074 5.62005 16.6765 5.62005V5.62005C15.9455 5.62005 15.3529 6.21261 15.3529 6.94358V10.5976V4.22854C15.3529 3.49758 14.7604 2.90501 14.0294 2.90501V2.90501C13.2984 2.90501 12.7059 3.49758 12.7059 4.22854V10.1451V3.32353C12.7059 2.59256 12.1133 2 11.3824 2V2C10.6514 2 10.0588 2.59256 10.0588 3.32353V10.1451V5.13356C10.0588 4.40259 9.46626 3.81002 8.73529 3.81002V3.81002C8.00433 3.81002 7.41176 4.40259 7.41176 5.13355V11.8355C7.41176 11.8792 7.35872 11.9007 7.32824 11.8695L6.39766 10.915C5.74441 10.245 4.66736 10.245 4.0141 10.915V10.915C3.43311 11.5109 3.38118 12.4432 3.89973 13.0942C5.06539 14.5575 7.09033 17.0555 8.29412 18.2902Z" stroke="white"/>
</svg>
