<svg width="22" height="22" viewBox="0 0 22 22" fill="none" xmlns="http://www.w3.org/2000/svg">
<path fill-rule="evenodd" clip-rule="evenodd" d="M10.6567 3.11683C10.8562 2.96106 11.1438 2.96106 11.3433 3.11683L17.2552 7.73336C17.2553 7.73343 17.2551 7.73328 17.2552 7.73336L20.8027 10.5036C21.0333 10.6837 21.0666 11.0072 20.877 11.2262C20.6874 11.4452 20.3467 11.4768 20.1161 11.2967L17.4527 9.21685V18.4866C17.4527 18.7702 17.2107 19 16.9122 19H5.08785C4.78932 19 4.54731 18.7702 4.54731 18.4866V9.21685L1.88385 11.2967C1.65326 11.4768 1.31263 11.4452 1.12303 11.2262C0.933429 11.0072 0.966662 10.6837 1.19726 10.5036L4.74161 7.73588C4.74371 7.73421 4.74583 7.73256 4.74797 7.73092L10.6567 3.11683ZM5.62839 8.37264V17.9733H16.3716V8.37264L11 4.17799L5.62839 8.37264Z" fill="white"/>
</svg>
