<svg width="22" height="22" viewBox="0 0 22 22" fill="none" xmlns="http://www.w3.org/2000/svg">
<path d="M7.60355 9.39645L7.25 9.04289L6.89645 9.39645L1.5 14.7929V1.5H20.5V20.5H18.7071L7.60355 9.39645ZM7.25 10.4571L17.2929 20.5H1.5V16.2071L7.25 10.4571ZM17.2911 11.0411C18.3493 9.98285 18.3493 8.26715 17.2911 7.20895C16.2328 6.15074 14.5172 6.15074 13.4589 7.20895C12.4007 8.26715 12.4007 9.98285 13.4589 11.0411C14.5172 12.0993 16.2328 12.0993 17.2911 11.0411ZM16.5839 7.91605C17.2516 8.58374 17.2516 9.66626 16.5839 10.3339C15.9163 11.0016 14.8337 11.0016 14.1661 10.3339C13.4984 9.66626 13.4984 8.58374 14.1661 7.91605C14.8337 7.24837 15.9163 7.24837 16.5839 7.91605Z" stroke="white"/>
</svg>
