<svg width="22" height="22" viewBox="0 0 22 22" fill="none" xmlns="http://www.w3.org/2000/svg">
<path fill-rule="evenodd" clip-rule="evenodd" d="M18.5347 2.25165C18.1995 1.91612 17.656 1.91612 17.3208 2.25165L16.5721 3.00116C15.6149 2.54347 14.4338 2.71141 13.641 3.50498L4.53683 12.618L9.39236 17.4782L18.4965 8.36523C19.2893 7.57166 19.4571 6.38938 18.9998 5.43128L19.7486 4.68178C20.0838 4.34624 20.0838 3.80224 19.7486 3.46671L18.5347 2.25165ZM15.8948 9.44681L9.65385 15.6938L6.37978 12.4166L12.6207 6.16955L15.8948 9.44681ZM16.6797 8.7073L17.7589 7.62697C18.0941 7.29144 18.0941 6.74744 17.7589 6.41191L15.6779 4.32887C15.3427 3.99334 14.7992 3.99334 14.464 4.32887L13.3848 5.40921L16.6797 8.7073Z" fill="white"/>
<path d="M2 20L3.82116 13.3168L8.67636 18.1774L2 20Z" fill="white"/>
</svg>
