<svg width="23" height="23" viewBox="0 0 23 23" fill="none" xmlns="http://www.w3.org/2000/svg">
<path fill-rule="evenodd" clip-rule="evenodd" d="M11.5 21.0563C16.7778 21.0563 21.0563 16.7778 21.0563 11.5C21.0563 6.22218 16.7778 1.94366 11.5 1.94366C6.22218 1.94366 1.94366 6.22218 1.94366 11.5C1.94366 16.7778 6.22218 21.0563 11.5 21.0563ZM11.5 23C17.8513 23 23 17.8513 23 11.5C23 5.14873 17.8513 0 11.5 0C5.14873 0 0 5.14873 0 11.5C0 17.8513 5.14873 23 11.5 23Z" fill="white"/>
<path fill-rule="evenodd" clip-rule="evenodd" d="M9.13517 7.1306C9.02733 7.06227 8.8865 7.13975 8.8865 7.26742L8.8865 15.7325C8.8865 15.8602 9.02733 15.9377 9.13517 15.8694L15.8145 11.6368C15.9149 11.5732 15.9149 11.4268 15.8145 11.3632L9.13517 7.1306ZM16.6815 13.005L10.0021 17.2375C8.81587 17.9892 7.26678 17.1369 7.26678 15.7325L7.26678 7.26742C7.26678 5.86304 8.81588 5.01074 10.0021 5.76245L16.6815 9.99504C17.7855 10.6946 17.7855 12.3054 16.6815 13.005Z" fill="white"/>
</svg>
