<svg width="22" height="22" viewBox="0 0 22 22" fill="none" xmlns="http://www.w3.org/2000/svg">
<path d="M17.3158 3.6842C16.4035 2.77193 14.9244 2.77193 14.0122 3.6842L12.3599 5.33643L11.8092 4.78575C11.5052 4.48166 11.0121 4.48166 10.708 4.78575C10.4039 5.08984 10.4039 5.58287 10.708 5.88696L15.1129 10.2918C15.417 10.5959 15.91 10.5959 16.2141 10.2918C16.5182 9.98771 16.5182 9.49468 16.2141 9.19059L15.6636 8.64006L17.3158 6.98784C18.2281 6.07556 18.2281 4.59648 17.3158 3.6842Z" fill="white"/>
<path fill-rule="evenodd" clip-rule="evenodd" d="M10.732 6.96435L4.67536 13.021C3.95615 13.7402 3.80395 14.8117 4.21875 15.68L3 16.8988L4.10121 18L5.31996 16.7813C6.18829 17.1961 7.25979 17.0438 7.97901 16.3246L14.0357 10.268L10.732 6.96435ZM11.8333 10.268L10.732 9.16677L5.77658 14.1222C5.47249 14.4263 5.47249 14.9193 5.77658 15.2234C6.08067 15.5275 6.5737 15.5275 6.87779 15.2234L11.8333 10.268Z" fill="white"/>
</svg>
