<svg width="22" height="22" viewBox="0 0 22 22" fill="none" xmlns="http://www.w3.org/2000/svg">
<path d="M14.0249 7.15502L13.1606 8.05646L11.6111 6.44026V14.2139H10.3889V6.4403L8.83942 8.05646L7.97518 7.15502L11 4L14.0249 7.15502Z" fill="white"/>
<path d="M7.72222 16.7252C7.16994 16.7252 6.72222 16.2775 6.72222 15.7252V11.3511C6.72222 10.7988 7.16994 10.3511 7.72222 10.3511H9.16667V9.07625H7.5C6.39543 9.07625 5.5 9.97168 5.5 11.0763V16C5.5 17.1046 6.39543 18 7.5 18H14.5C15.6046 18 16.5 17.1046 16.5 16V11.0763C16.5 9.97168 15.6046 9.07625 14.5 9.07625H12.8333V10.3511H14.2778C14.8301 10.3511 15.2778 10.7988 15.2778 11.3511V15.7252C15.2778 16.2775 14.8301 16.7252 14.2778 16.7252H7.72222Z" fill="white"/>
</svg>
