<svg width="26" height="26" viewBox="0 0 26 26" fill="none" xmlns="http://www.w3.org/2000/svg">
<g filter="url(#filter0_d)">
<path fill-rule="evenodd" clip-rule="evenodd" d="M12.9996 5.25018C12.9177 5.25018 12.837 5.27033 12.7646 5.30885L5.26462 9.30885C5.18475 9.35153 5.11796 9.41509 5.0714 9.49276C5.02484 9.57043 5.00024 9.65929 5.00024 9.74985C5.00024 9.84041 5.02484 9.92927 5.0714 10.0069C5.11796 10.0846 5.18475 10.1482 5.26462 10.1908L7.25073 11.2501L5.2656 12.3088C5.18572 12.3515 5.11894 12.4151 5.07238 12.4928C5.02582 12.5704 5.00122 12.6593 5.00122 12.7498C5.00122 12.8404 5.02582 12.9293 5.07238 13.0069C5.11894 13.0846 5.18572 13.1482 5.2656 13.1908L7.72016 14.5L5.26462 15.8092C5.18475 15.8519 5.11796 15.9154 5.0714 15.9931C5.02484 16.0708 5.00024 16.1596 5.00024 16.2502C5.00024 16.3407 5.02484 16.4296 5.0714 16.5073C5.11796 16.5849 5.18475 16.6485 5.26462 16.6912L12.7646 20.6912C12.837 20.7297 12.9177 20.7499 12.9996 20.7499C13.0816 20.7499 13.1623 20.7297 13.2346 20.6912L20.7346 16.6912C20.8145 16.6485 20.8813 16.5849 20.9278 16.5073C20.9744 16.4296 20.999 16.3407 20.999 16.2502C20.999 16.1596 20.9744 16.0708 20.9278 15.9931C20.8813 15.9154 20.8145 15.8519 20.7346 15.8092L18.2813 14.4998L20.7356 13.1908C20.8155 13.1482 20.8823 13.0846 20.9288 13.0069C20.9754 12.9293 21 12.8404 21 12.7498C21 12.6593 20.9754 12.5704 20.9288 12.4928C20.8823 12.4151 20.8155 12.3515 20.7356 12.3088L18.7495 11.2496L20.7346 10.1908C20.8145 10.1482 20.8813 10.0846 20.9278 10.0069C20.9744 9.92927 20.999 9.84041 20.999 9.74985C20.999 9.65929 20.9744 9.57043 20.9278 9.49276C20.8813 9.41509 20.8145 9.35153 20.7346 9.30885L13.2346 5.30885C13.1623 5.27033 13.0816 5.25018 12.9996 5.25018ZM17.6874 10.6831L19.4376 9.74985L12.9996 6.31685L6.56162 9.74985H6.56262L8.31319 10.6835L12.7656 8.30885C12.8379 8.27033 12.9186 8.25018 13.0006 8.25018C13.0826 8.25018 13.1633 8.27033 13.2356 8.30885L17.6874 10.6831ZM9.37566 11.2501L13.0006 9.31685L16.6251 11.2496L12.9996 13.1828L9.37566 11.2501ZM8.31319 11.8168L12.7646 14.1909C12.837 14.2294 12.9177 14.2495 12.9996 14.2495C13.0816 14.2495 13.1623 14.2294 13.2346 14.1909L17.6874 11.816L19.4386 12.7498L13.0006 16.1828L6.5636 12.7498L8.31319 11.8168ZM13.2356 17.1909L17.2185 15.0666L19.4386 16.2502L13.0006 19.6832L6.56262 16.2502L8.7827 15.0666L12.7656 17.1909C12.8379 17.2294 12.9186 17.2495 13.0006 17.2495C13.0826 17.2495 13.1633 17.2294 13.2356 17.1909Z" fill="white"/>
</g>
<defs>
<filter id="filter0_d" x="0.000244141" y="0.250183" width="25.9997" height="25.4997" filterUnits="userSpaceOnUse" color-interpolation-filters="sRGB">
<feFlood flood-opacity="0" result="BackgroundImageFix"/>
<feColorMatrix in="SourceAlpha" type="matrix" values="0 0 0 0 0 0 0 0 0 0 0 0 0 0 0 0 0 0 127 0"/>
<feOffset/>
<feGaussianBlur stdDeviation="2.5"/>
<feColorMatrix type="matrix" values="0 0 0 0 1 0 0 0 0 1 0 0 0 0 1 0 0 0 0.25 0"/>
<feBlend mode="normal" in2="BackgroundImageFix" result="effect1_dropShadow"/>
<feBlend mode="normal" in="SourceGraphic" in2="effect1_dropShadow" result="shape"/>
</filter>
</defs>
</svg>
