<svg width="22" height="22" viewBox="0 0 22 22" fill="none" xmlns="http://www.w3.org/2000/svg">
<path d="M17.814 4.18604C18.5735 4.94828 19 5.98049 19 7.05656C19 8.13263 18.5735 9.16484 17.814 9.92708L16.374 11.3576C15.3199 12.4117 13.8329 12.7411 12.4776 12.3835L14.9434 9.92708L15.6587 9.20239L16.374 8.48712C17.1646 7.69655 17.1646 6.41657 16.374 5.626C16.1874 5.43591 15.9648 5.28492 15.7191 5.18185C15.4735 5.07877 15.2098 5.02568 14.9434 5.02568C14.6771 5.02568 14.4134 5.07877 14.1677 5.18185C13.9221 5.28492 13.6995 5.43591 13.5129 5.626L12.7882 6.34128L9.60709 9.52239C9.25886 8.16712 9.58827 6.6801 10.6424 5.626L12.0729 4.18604C12.8352 3.42649 13.8674 3 14.9434 3C16.0195 3 17.0517 3.42649 17.814 4.18604ZM9.20239 14.2282L14.2282 9.20239C14.6234 8.80711 14.6234 8.16712 14.2282 7.77184C13.8141 7.36714 13.1647 7.40479 12.7882 7.77184L7.77184 12.7976C7.37655 13.1929 7.37655 13.8329 7.77184 14.2282C8.18595 14.6329 8.83534 14.5952 9.20239 14.2282ZM8.48712 16.3834L12.3835 12.4776C12.7411 13.8329 12.4117 15.3199 11.3576 16.374L9.92708 17.814C9.16484 18.5735 8.13263 19 7.05656 19C5.98049 19 4.94828 18.5735 4.18604 17.814C3.42649 17.0517 3 16.0195 3 14.9434C3 13.8674 3.42649 12.8352 4.18604 12.0729L5.626 10.6424C6.6801 9.58827 8.16712 9.25886 9.52239 9.60709L5.626 13.5129C4.82602 14.3035 4.82602 15.5834 5.626 16.3834C6.41657 17.174 7.69655 17.174 8.48712 16.3834Z" fill="white"/>
</svg>
