<svg width="22" height="22" viewBox="0 0 22 22" fill="none" xmlns="http://www.w3.org/2000/svg">
<path d="M20.3173 8.95455H13.375C13.2745 8.95455 13.1923 9.03125 13.1923 9.125V11.5114C13.1923 11.6051 13.2745 11.6818 13.375 11.6818H14.4712C14.5716 11.6818 14.6538 11.6051 14.6538 11.5114V10.3182H16.024V17.1364H14.9736C14.8731 17.1364 14.7909 17.2131 14.7909 17.3068V18.3295C14.7909 18.4233 14.8731 18.5 14.9736 18.5H18.7188C18.8192 18.5 18.9014 18.4233 18.9014 18.3295V17.3068C18.9014 17.2131 18.8192 17.1364 18.7188 17.1364H17.6683V10.3182H19.0385V11.5114C19.0385 11.6051 19.1207 11.6818 19.2212 11.6818H20.3173C20.4178 11.6818 20.5 11.6051 20.5 11.5114V9.125C20.5 9.03125 20.4178 8.95455 20.3173 8.95455ZM14.2885 6.39773V3.67045C14.2885 3.5767 14.2063 3.5 14.1058 3.5H1.68269C1.58221 3.5 1.5 3.5767 1.5 3.67045V6.39773C1.5 6.49148 1.58221 6.56818 1.68269 6.56818H2.96154C3.06202 6.56818 3.14423 6.49148 3.14423 6.39773V5.03409H6.98077V16.9659H4.87981C4.77933 16.9659 4.69712 17.0426 4.69712 17.1364V18.3295C4.69712 18.4233 4.77933 18.5 4.87981 18.5H10.9087C11.0091 18.5 11.0913 18.4233 11.0913 18.3295V17.1364C11.0913 17.0426 11.0091 16.9659 10.9087 16.9659H8.80769V5.03409H12.6442V6.39773C12.6442 6.49148 12.7264 6.56818 12.8269 6.56818H14.1058C14.2063 6.56818 14.2885 6.49148 14.2885 6.39773Z" fill="white"/>
</svg>
